<?xml version="1.0" encoding="utf-8"?>
<!-- Generator: Adobe Illustrator 16.0.0, SVG Export Plug-In . SVG Version: 6.00 Build 0)  -->
<svg version="1.2" baseProfile="tiny" id="Layer_1" xmlns:svg="http://www.w3.org/2000/svg"
	 xmlns="http://www.w3.org/2000/svg" xmlns:xlink="http://www.w3.org/1999/xlink" x="0px" y="0px" width="14.35px"
	 height="18.719px" viewBox="0 0 14.35 18.719" xml:space="preserve">
<g id="silkscreen">
	<rect x="0.144" y="2.415" fill="none" stroke="#FFFFFF" stroke-width="0.5" width="13.979" height="13.979"/>
	<polyline id="path" fill="none" stroke="#000000" stroke-width="0.2915" points="0.852,16.228 0.235,16.228 0.235,2.444 
		0.852,2.444"/>
	<polyline id="path_2_" fill="none" stroke="#000000" stroke-width="0.2915" points="13.401,2.444 14.019,2.444 14.019,16.228 
		13.401,16.228 	"/>
	<path id="path4174" fill="none" stroke="#000000" stroke-width="0.2835" d="M10.311,16.275h-6.32
		"/>
	<path id="path4185" fill="none" stroke="#000000" stroke-width="0.2835" d="M10.254,2.454H4.086"
		/>
	
		<path id="path4203" fill="none" stroke="#000000" stroke-width="0.2832" stroke-linecap="round" d="
		M13.013,4.626l1.02,1.02"/>
	<text transform="
		matrix(-1 0 0 -1 13.0788 7.3645)
		rotate(180)
	" font-family="'DroidSans'" font-size="2.5" text-anchor="end">-</text>
	<text transform="
		matrix(-1 0 0 -1 1.1882 7.3645)
		rotate(180)
	" font-family="'DroidSans'" font-size="2.5">Din</text>
	<text transform="
		matrix(-1 0 0 -1 13.0788 12.2161)
		rotate(180)
	" font-family="'DroidSans'" font-size="2.5" text-anchor="end">Dout</text>
	<text transform="
		matrix(-1 0 0 -1 1.1882 12.2161)
		rotate(180)
	" font-family="'DroidSans'" font-size="2.5">+</text>
</g>
<g id="copper1">
	<rect stroke-width="0" id="connector3pin" x="1.244" y="0.001" fill="#F7BF13" width="2.897" height="4.829"/>
	<rect stroke-width="0" id="connector2pin" x="10.6" y="0" fill="#F7BF13" width="2.896" height="4.829"/>
	<rect stroke-width="0" id="connector0pin" x="1.244" y="13.889" fill="#F7BF13" width="2.897" height="4.83"/>
	<rect stroke-width="0" id="connector1pin" x="10.6" y="13.89" fill="#F7BF13" width="2.896" height="4.828"/>
</g>
</svg>
