<?xml version="1.0" encoding="utf-8"?>
<svg version="1.2" baseProfile="tiny" id="Layer_1" xmlns:svg="http://www.w3.org/2000/svg"
	 xmlns="http://www.w3.org/2000/svg" xmlns:xlink="http://www.w3.org/1999/xlink" x="0px" y="0px" width="51.1px" height="36.795px"
	 viewBox="0 0 51.1 36.795" xml:space="preserve">
<g id="schematic">
	
	<rect x="7.55" y="7.739" fill="#FFFFFF" stroke="#000000" stroke-width="0.9" stroke-linecap="round" stroke-linejoin="round" width="36" height="21.6"/>

	<line id="connector0pin" fill="none" stroke="#787878" stroke-width="0.75" stroke-linecap="round" x1="50.749" y1="14.938" x2="43.549" y2="14.938"/>
	<rect id="connector0terminal" x="50.749" y="14.938" fill="none" width="0" height="0.001"/>
	<text transform="matrix(1 0 0 1 42.3747 16.0273)" fill="#787878" font-family="'DroidSans'" font-size="3.5" text-anchor="end">GND</text>
	
	<line id="connector1pin" fill="none" stroke="#787878" stroke-width="0.75" stroke-linecap="round" x1="0.35" y1="14.938" x2="7.55" y2="14.938"/>
	<rect id="connector1terminal" x="0.35" y="14.938" fill="none" width="0" height="0.001"/>
	<text transform="matrix(1 0 0 1 8.7253 16.0273)" fill="#787878" font-family="'DroidSans'" font-size="3.5">Dout</text>	

	<line id="connector2pin" fill="none" stroke="#787878" stroke-width="0.75" stroke-linecap="round" x1="50.749" y1="22.138" x2="43.549" y2="22.138"/>
	<rect id="connector2terminal" x="18.553" y="0.474" fill="none" width="0" height="0.002"/>
	<text transform="matrix(1 0 0 1 42.3747 23.2275)" fill="#787878" font-family="'DroidSans'" font-size="3.5" text-anchor="end">+5v</text>
	
	<line id="connector3pin" fill="none" stroke="#787878" stroke-width="0.75" stroke-linecap="round" x1="0.351" y1="22.138" x2="7.55" y2="22.138"/>
	<rect id="connector3terminal" x="0.351" y="22.138" fill="none" width="0" height="0.002"/>
	<text transform="matrix(1 0 0 1 8.7258 23.2275)" fill="#787878" font-family="'DroidSans'" font-size="3.5">Din</text>

	
	
	<text transform="matrix(1 0 0 1 18.1521 17)" font-family="'DroidSans'" font-size="4.252">RGB</text>
	<text transform="matrix(1 0 0 1 18.1521 21)" font-family="'DroidSans'" font-size="4.252">Neopixel</text>
</g>
</svg>
