<?xml version='1.0' encoding='UTF-8' standalone='no'?>
<!-- Created with Fritzing (http://www.fritzing.org/) -->
<svg xmlns="http://www.w3.org/2000/svg" xmlns:svg="http://www.w3.org/2000/svg" baseProfile="tiny" version="1.2"  height="0.6in" x="0in" width="0.4in" viewBox="0 0 400 600" y="0in">
    <desc>
        <referenceFile>SO08_breadboard.svg</referenceFile>
    </desc>
    <g  id="breadboard" stroke-width="0">
        <g  id="icon" stroke-width="0">
            <path fill="#1F7A34" d="M0,0L0,270A30,30,0,0,1,0,330L0,600L400,600L400,0L0,0z"  stroke-width="0" stroke="none"/>
            <g transform="matrix(1, 0, 0, 1, 104, 153.5)"  stroke-width="0">
                <g transform="matrix(0.5, 0, 0, 0.5, 48, 73.25)"  stroke-width="0">
                    <rect fill="#8c8c8c"  height="87" x="9" stroke-width="0" width="24" stroke="none" y="206"/>
                    <rect fill="#8c8c8c"  height="87" x="59" stroke-width="0" width="24" stroke="none" y="206"/>
                    <rect fill="#8c8c8c"  height="87" x="109" stroke-width="0" width="24" stroke="none" y="206"/>
                    <rect fill="#8c8c8c"  height="87" x="159" stroke-width="0" width="24" stroke="none" y="206"/>
                    <rect fill="#8c8c8c"  height="87" x="159" stroke-width="0" width="24" stroke="none" y="0"/>
                    <rect fill="#8c8c8c"  height="87" x="109" stroke-width="0" width="24" stroke="none" y="0"/>
                    <rect fill="#8c8c8c"  height="87" x="59" stroke-width="0" width="24" stroke="none" y="0"/>
                    <rect fill="#8c8c8c"  height="87" x="9" stroke-width="0" width="24" stroke="none" y="0"/>
                    <rect fill="#303030"  height="141.969" x="3.00787" stroke-width="0" width="185.983" stroke="none" y="75.5157"/>
                    <polygon fill="#1f1f1f"  stroke-width="0" points="3.00787,75.5157,188.992,75.5157,178.992,85.5157,13.0079,85.5157"/>
                    <polygon fill="#1f1f1f"  stroke-width="0" points="3.00787,217.483,188.992,217.483,178.992,207.483,13.0079,207.483"/>
                    <polygon fill="#000000"  stroke-width="0" points="3.00787,75.5157,3.00787,217.483,13.0079,207.483,13.0079,85.5157"/>
                    <polygon fill="#3d3d3d"  stroke-width="0" points="188.992,75.5157,188.992,217.483,178.992,207.483,178.992,85.5157"/>
                    <circle cy="187.483" fill="#1f1f1f" cx="33.0079"  stroke-width="0" stroke="none" r="10"/>
                </g>
            </g>
            
            <g transform="matrix(1, 0, 0, 1, 110, 300)"  stroke-width="0">
                <g transform="rotate(-90)"  stroke-width="0">
                    <text fill="white" font-family="OCR-A" text-anchor="middle"  x="0" stroke-width="0" stroke="none" y="0" font-size="65">Attiny85</text>
                </g>
            </g>
            
            <g transform="matrix(1, 0, 0, 1, 63.5, 526.05)"  stroke-width="0">
                <g transform="rotate(-90)"  stroke-width="0">
                    <text fill="white" font-family="OCR-A" text-anchor="start"  x="0" stroke-width="0" stroke="none" y="0" font-size="45">1</text>
                </g>
            </g>
            <g transform="matrix(1, 0, 0, 1, 63.5, 73.95)"  stroke-width="0">
                <g transform="rotate(-90)"  stroke-width="0">
                    <text fill="white" font-family="OCR-A" text-anchor="end"  x="0" stroke-width="0" stroke="none" y="0" font-size="45">8</text>
                </g>
            </g>
            <g transform="matrix(1, 0, 0, 1, 163.5, 526.05)"  stroke-width="0">
                <g transform="rotate(-90)"  stroke-width="0">
                    <text fill="white" font-family="OCR-A" text-anchor="start"  x="0" stroke-width="0" stroke="none" y="0" font-size="45">2</text>
                </g>
            </g>
            <g transform="matrix(1, 0, 0, 1, 163.5, 73.95)"  stroke-width="0">
                <g transform="rotate(-90)"  stroke-width="0">
                    <text fill="white" font-family="OCR-A" text-anchor="end"  x="0" stroke-width="0" stroke="none" y="0" font-size="45">7</text>
                </g>
            </g>
            <g transform="matrix(1, 0, 0, 1, 263.5, 526.05)"  stroke-width="0">
                <g transform="rotate(-90)"  stroke-width="0">
                    <text fill="white" font-family="OCR-A" text-anchor="start"  x="0" stroke-width="0" stroke="none" y="0" font-size="45">3</text>
                </g>
            </g>
            <g transform="matrix(1, 0, 0, 1, 263.5, 73.95)"  stroke-width="0">
                <g transform="rotate(-90)"  stroke-width="0">
                    <text fill="white" font-family="OCR-A" text-anchor="end"  x="0" stroke-width="0" stroke="none" y="0" font-size="45">6</text>
                </g>
            </g>
            <g transform="matrix(1, 0, 0, 1, 363.5, 526.05)"  stroke-width="0">
                <g transform="rotate(-90)"  stroke-width="0">
                    <text fill="white" font-family="OCR-A" text-anchor="start"  x="0" stroke-width="0" stroke="none" y="0" font-size="45">4</text>
                </g>
            </g>
            <g transform="matrix(1, 0, 0, 1, 363.5, 73.95)"  stroke-width="0">
                <g transform="rotate(-90)"  stroke-width="0">
                    <text fill="white" font-family="OCR-A" text-anchor="end"  x="0" stroke-width="0" stroke="none" y="0" font-size="45">5</text>
                </g>
            </g>
        </g>
        <g transform="matrix(1, 0, 0, 1, 34.035, 534.05)"  id="connector0pin" stroke-width="0">
            <rect fill="#8D8C8C"  height="31.9" x="0" stroke-width="0" width="31.93" y="0"/>
            <rect fill="#8C8663"  height="16.4151" x="7.79153" stroke-width="0" width="16.4442" y="7.73544"/>
            <polygon fill="#B8AF82"  stroke-width="0" points="0,31.9,7.79153,24.1368,7.79153,6.97162,0,0"/>
            <polygon fill="#80795B"  stroke-width="0" points="24.2079,7.76321,7.90264,7.76321,0,0,31.93,0"/>
            <polygon fill="#5E5B43"  stroke-width="0" points="24.2079,24.1368,24.2079,7.76321,31.93,0,31.93,31.9"/>
            <polygon fill="#9A916C"  stroke-width="0" points="0,31.9,7.87486,24.1368,24.2079,24.1368,31.93,31.9"/>
        </g>
        <g transform="matrix(1, 0, 0, 1, 34.035, 34.05)"  id="connector7pin" stroke-width="0">
            <rect fill="#8D8C8C"  height="31.9" x="0" stroke-width="0" width="31.93" y="0"/>
            <rect fill="#8C8663"  height="16.4151" x="7.79153" stroke-width="0" width="16.4442" y="7.73544"/>
            <polygon fill="#B8AF82"  stroke-width="0" points="0,31.9,7.79153,24.1368,7.79153,6.97162,0,0"/>
            <polygon fill="#80795B"  stroke-width="0" points="24.2079,7.76321,7.90264,7.76321,0,0,31.93,0"/>
            <polygon fill="#5E5B43"  stroke-width="0" points="24.2079,24.1368,24.2079,7.76321,31.93,0,31.93,31.9"/>
            <polygon fill="#9A916C"  stroke-width="0" points="0,31.9,7.87486,24.1368,24.2079,24.1368,31.93,31.9"/>
        </g>
        <g transform="matrix(1, 0, 0, 1, 134.035, 534.05)"  id="connector1pin" stroke-width="0">
            <rect fill="#8D8C8C"  height="31.9" x="0" stroke-width="0" width="31.93" y="0"/>
            <rect fill="#8C8663"  height="16.4151" x="7.79153" stroke-width="0" width="16.4442" y="7.73544"/>
            <polygon fill="#B8AF82"  stroke-width="0" points="0,31.9,7.79153,24.1368,7.79153,6.97162,0,0"/>
            <polygon fill="#80795B"  stroke-width="0" points="24.2079,7.76321,7.90264,7.76321,0,0,31.93,0"/>
            <polygon fill="#5E5B43"  stroke-width="0" points="24.2079,24.1368,24.2079,7.76321,31.93,0,31.93,31.9"/>
            <polygon fill="#9A916C"  stroke-width="0" points="0,31.9,7.87486,24.1368,24.2079,24.1368,31.93,31.9"/>
        </g>
        <g transform="matrix(1, 0, 0, 1, 134.035, 34.05)"  id="connector6pin" stroke-width="0">
            <rect fill="#8D8C8C"  height="31.9" x="0" stroke-width="0" width="31.93" y="0"/>
            <rect fill="#8C8663"  height="16.4151" x="7.79153" stroke-width="0" width="16.4442" y="7.73544"/>
            <polygon fill="#B8AF82"  stroke-width="0" points="0,31.9,7.79153,24.1368,7.79153,6.97162,0,0"/>
            <polygon fill="#80795B"  stroke-width="0" points="24.2079,7.76321,7.90264,7.76321,0,0,31.93,0"/>
            <polygon fill="#5E5B43"  stroke-width="0" points="24.2079,24.1368,24.2079,7.76321,31.93,0,31.93,31.9"/>
            <polygon fill="#9A916C"  stroke-width="0" points="0,31.9,7.87486,24.1368,24.2079,24.1368,31.93,31.9"/>
        </g>
        <g transform="matrix(1, 0, 0, 1, 234.035, 534.05)"  id="connector2pin" stroke-width="0">
            <rect fill="#8D8C8C"  height="31.9" x="0" stroke-width="0" width="31.93" y="0"/>
            <rect fill="#8C8663"  height="16.4151" x="7.79153" stroke-width="0" width="16.4442" y="7.73544"/>
            <polygon fill="#B8AF82"  stroke-width="0" points="0,31.9,7.79153,24.1368,7.79153,6.97162,0,0"/>
            <polygon fill="#80795B"  stroke-width="0" points="24.2079,7.76321,7.90264,7.76321,0,0,31.93,0"/>
            <polygon fill="#5E5B43"  stroke-width="0" points="24.2079,24.1368,24.2079,7.76321,31.93,0,31.93,31.9"/>
            <polygon fill="#9A916C"  stroke-width="0" points="0,31.9,7.87486,24.1368,24.2079,24.1368,31.93,31.9"/>
        </g>
        <g transform="matrix(1, 0, 0, 1, 234.035, 34.05)"  id="connector5pin" stroke-width="0">
            <rect fill="#8D8C8C"  height="31.9" x="0" stroke-width="0" width="31.93" y="0"/>
            <rect fill="#8C8663"  height="16.4151" x="7.79153" stroke-width="0" width="16.4442" y="7.73544"/>
            <polygon fill="#B8AF82"  stroke-width="0" points="0,31.9,7.79153,24.1368,7.79153,6.97162,0,0"/>
            <polygon fill="#80795B"  stroke-width="0" points="24.2079,7.76321,7.90264,7.76321,0,0,31.93,0"/>
            <polygon fill="#5E5B43"  stroke-width="0" points="24.2079,24.1368,24.2079,7.76321,31.93,0,31.93,31.9"/>
            <polygon fill="#9A916C"  stroke-width="0" points="0,31.9,7.87486,24.1368,24.2079,24.1368,31.93,31.9"/>
        </g>
        <g transform="matrix(1, 0, 0, 1, 334.035, 534.05)"  id="connector3pin" stroke-width="0">
            <rect fill="#8D8C8C"  height="31.9" x="0" stroke-width="0" width="31.93" y="0"/>
            <rect fill="#8C8663"  height="16.4151" x="7.79153" stroke-width="0" width="16.4442" y="7.73544"/>
            <polygon fill="#B8AF82"  stroke-width="0" points="0,31.9,7.79153,24.1368,7.79153,6.97162,0,0"/>
            <polygon fill="#80795B"  stroke-width="0" points="24.2079,7.76321,7.90264,7.76321,0,0,31.93,0"/>
            <polygon fill="#5E5B43"  stroke-width="0" points="24.2079,24.1368,24.2079,7.76321,31.93,0,31.93,31.9"/>
            <polygon fill="#9A916C"  stroke-width="0" points="0,31.9,7.87486,24.1368,24.2079,24.1368,31.93,31.9"/>
        </g>
        <g transform="matrix(1, 0, 0, 1, 334.035, 34.05)"  id="connector4pin" stroke-width="0">
            <rect fill="#8D8C8C"  height="31.9" x="0" stroke-width="0" width="31.93" y="0"/>
            <rect fill="#8C8663"  height="16.4151" x="7.79153" stroke-width="0" width="16.4442" y="7.73544"/>
            <polygon fill="#B8AF82"  stroke-width="0" points="0,31.9,7.79153,24.1368,7.79153,6.97162,0,0"/>
            <polygon fill="#80795B"  stroke-width="0" points="24.2079,7.76321,7.90264,7.76321,0,0,31.93,0"/>
            <polygon fill="#5E5B43"  stroke-width="0" points="24.2079,24.1368,24.2079,7.76321,31.93,0,31.93,31.9"/>
            <polygon fill="#9A916C"  stroke-width="0" points="0,31.9,7.87486,24.1368,24.2079,24.1368,31.93,31.9"/>
        </g>
    </g>
</svg>
