<?xml version='1.0' encoding='UTF-8' standalone='no'?>
<!-- Created with Fritzing (http://www.fritzing.org/) -->
<svg xmlns="http://www.w3.org/2000/svg" xmlns:svg="http://www.w3.org/2000/svg" baseProfile="tiny" version="1.2"  height="0.3519in" x="0in" width="0.1858in" viewBox="0 0 185.8 351.9" y="0in">
    <desc>
        <referenceFile>attiny85_pcb.svg</referenceFile>
    </desc>
    <g  id="copper1">
        <rect fill="#ffbf00" connectorname="1"  height="86.9" id="connector0pad" x="5.9" stroke-width="0" width="24" y="265"/>
        <rect fill="#ffbf00" connectorname="2"  height="86.9" id="connector1pad" x="55.9" stroke-width="0" width="24" y="265"/>
        <rect fill="#ffbf00" connectorname="3"  height="86.9" id="connector2pad" x="105.9" stroke-width="0" width="24" y="265"/>
        <rect fill="#ffbf00" connectorname="4"  height="86.9" id="connector3pad" x="155.9" stroke-width="0" width="24" y="265"/>
        <rect fill="#ffbf00" connectorname="5"  height="86.9" id="connector4pad" x="155.9" stroke-width="0" width="24" y="0"/>
        <rect fill="#ffbf00" connectorname="6"  height="86.9" id="connector5pad" x="105.9" stroke-width="0" width="24" y="0"/>
        <rect fill="#ffbf00" connectorname="7"  height="86.9" id="connector6pad" x="55.9" stroke-width="0" width="24" y="0"/>
        <rect fill="#ffbf00" connectorname="8"  height="86.9" id="connector7pad" x="5.9" stroke-width="0" width="24" y="0"/>
    </g>
    <g  id="silkscreen">
        <line fill="none" x2="24.9" x1="10.9" y2="318.35"  stroke-width="2.6" y1="318.35" stroke="white"/>
        <line fill="none" x2="24.9" x1="24.9" y2="278.45"  stroke-width="2.6" y1="318.35" stroke="white"/>
        <line fill="none" x2="24.9" x1="10.9" y2="278.45"  stroke-width="2.6" y1="278.45" stroke="white"/>
        <line fill="none" x2="10.9" x1="10.9" y2="278.45"  stroke-width="2.6" y1="318.35" stroke="white"/>
        <line fill="none" x2="74.9" x1="60.9" y2="318.35"  stroke-width="2.6" y1="318.35" stroke="white"/>
        <line fill="none" x2="74.9" x1="74.9" y2="278.45"  stroke-width="2.6" y1="318.35" stroke="white"/>
        <line fill="none" x2="74.9" x1="60.9" y2="278.45"  stroke-width="2.6" y1="278.45" stroke="white"/>
        <line fill="none" x2="60.9" x1="60.9" y2="278.45"  stroke-width="2.6" y1="318.35" stroke="white"/>
        <line fill="none" x2="124.9" x1="110.9" y2="318.35"  stroke-width="2.6" y1="318.35" stroke="white"/>
        <line fill="none" x2="124.9" x1="124.9" y2="278.45"  stroke-width="2.6" y1="318.35" stroke="white"/>
        <line fill="none" x2="124.9" x1="110.9" y2="278.45"  stroke-width="2.6" y1="278.45" stroke="white"/>
        <line fill="none" x2="110.9" x1="110.9" y2="278.45"  stroke-width="2.6" y1="318.35" stroke="white"/>
        <line fill="none" x2="174.9" x1="160.9" y2="318.35"  stroke-width="2.6" y1="318.35" stroke="white"/>
        <line fill="none" x2="174.9" x1="174.9" y2="278.45"  stroke-width="2.6" y1="318.35" stroke="white"/>
        <line fill="none" x2="174.9" x1="160.9" y2="278.45"  stroke-width="2.6" y1="278.45" stroke="white"/>
        <line fill="none" x2="160.9" x1="160.9" y2="278.45"  stroke-width="2.6" y1="318.35" stroke="white"/>
        <line fill="none" x2="24.9" x1="10.9" y2="73.55"  stroke-width="2.6" y1="73.55" stroke="white"/>
        <line fill="none" x2="24.9" x1="24.9" y2="33.55"  stroke-width="2.6" y1="73.55" stroke="white"/>
        <line fill="none" x2="24.9" x1="10.9" y2="33.55"  stroke-width="2.6" y1="33.55" stroke="white"/>
        <line fill="none" x2="10.9" x1="10.9" y2="33.55"  stroke-width="2.6" y1="73.55" stroke="white"/>
        <line fill="none" x2="74.9" x1="60.9" y2="73.55"  stroke-width="2.6" y1="73.55" stroke="white"/>
        <line fill="none" x2="74.9" x1="74.9" y2="33.55"  stroke-width="2.6" y1="73.55" stroke="white"/>
        <line fill="none" x2="74.9" x1="60.9" y2="33.55"  stroke-width="2.6" y1="33.55" stroke="white"/>
        <line fill="none" x2="60.9" x1="60.9" y2="33.55"  stroke-width="2.6" y1="73.55" stroke="white"/>
        <line fill="none" x2="124.9" x1="110.9" y2="73.55"  stroke-width="2.6" y1="73.55" stroke="white"/>
        <line fill="none" x2="124.9" x1="124.9" y2="33.55"  stroke-width="2.6" y1="73.55" stroke="white"/>
        <line fill="none" x2="124.9" x1="110.9" y2="33.55"  stroke-width="2.6" y1="33.55" stroke="white"/>
        <line fill="none" x2="110.9" x1="110.9" y2="33.55"  stroke-width="2.6" y1="73.55" stroke="white"/>
        <line fill="none" x2="174.9" x1="160.9" y2="73.55"  stroke-width="2.6" y1="73.55" stroke="white"/>
        <line fill="none" x2="174.9" x1="174.9" y2="33.55"  stroke-width="2.6" y1="73.55" stroke="white"/>
        <line fill="none" x2="174.9" x1="160.9" y2="33.55"  stroke-width="2.6" y1="33.55" stroke="white"/>
        <line fill="none" x2="160.9" x1="160.9" y2="33.55"  stroke-width="2.6" y1="73.55" stroke="white"/>
        <line fill="none" x2="185.8" x1="0" y2="276.35"  stroke-width="6" y1="276.35" stroke="white"/>
        <line fill="none" x2="182.8" x1="182.8" y2="75.55"  stroke-width="6" y1="276.35" stroke="white"/>
        <line fill="none" x2="0" x1="185.8" y2="75.55"  stroke-width="6" y1="75.55" stroke="white"/>
        <line fill="none" x2="3" x1="3" y2="148.95"  stroke-width="6" y1="75.55" stroke="white"/>
        <path fill="none" d="M 3,205.95 A 1,1 0 0,0 3,145.95" stroke-width="6" stroke="white"/>
        <line fill="none" x2="3" x1="3" y2="276.35"  stroke-width="6" y1="202.95" stroke="white"/>
        <circle cy="244.45" fill="none" cx="22"  stroke-width="4" stroke="white" r="3.9598"/>
    </g>
</svg>
