<?xml version='1.0' encoding='UTF-8' standalone='no'?>
<svg xmlns="http://www.w3.org/2000/svg" width="0.4in" viewBox="0 0 40.0 33.0" xml:space="preserve" xmlns:xml="http://www.w3.org/XML/1998/namespace"  version="1.2" height="0.33in" id="svg2">
    <desc>
        <referenceFile>attiny85_breadboard.svg</referenceFile>
    </desc>
    <metadata id="metadata3462">
        <rdf:RDF xmlns:rdf="http://www.w3.org/1999/02/22-rdf-syntax-ns#">
            <cc:Work rdf:about="" xmlns:cc="http://creativecommons.org/ns#" xmlns:rdf="http://www.w3.org/1999/02/22-rdf-syntax-ns#">
                <dc:format xmlns:dc="http://purl.org/dc/elements/1.1/">image/svg+xml</dc:format>
                <dc:type xmlns:dc="http://purl.org/dc/elements/1.1/" rdf:resource="http://purl.org/dc/dcmitype/StillImage" xmlns:rdf="http://www.w3.org/1999/02/22-rdf-syntax-ns#"/>
                <dc:title xmlns:dc="http://purl.org/dc/elements/1.1/"/>
            </cc:Work>
        </rdf:RDF>
    </metadata>
    <defs id="defs3460"/>
    <g id="breadboard">
        <rect x="0" width="40.0" height="27.0" id="middle" fill="#303030" y="3"/>
        <rect x="0" width="40.0" height="2.46" id="top" fill="#3D3D3D" y="3.0"/>
        <rect x="0" width="40.0" height="2.46" id="bottom" fill="#000000" y="27.54"/>
        <polygon points="40.0,3 39.25,5.46 39.25,27.54 40.0,30.0" id="right" fill="#141414"/>
        <polygon points="0,3 0.75,5.46 0.75,27.54 0,30.0" id="left" fill="#1F1F1F"/>
        <polygon points="5,11.5 0.75,11.46 0.56,13.58 0.56,16.5 5,16.5" id="left-upper-rect" fill="#1C1C1C"/>
        <polygon points="0.75,21.55 5,21.55 5,16.5 0.56,16.5 0.56,19.42" id="left-lower-rect" fill="#383838"/>
        <path id="slot" fill="#262626" d="M0.56,13.58v5.83c1.47-0.17,2.62-1.4,2.62-2.92C3.18,14.97,2.04,13.75,0.56,13.58z"/>
        <path id="cover" fill="#303030" d="M0.75,5.46V11.45c2.38,0.45,4.19,2.53,4.19,5.04c0,2.51-1.8,4.6-4.19,5.05V21.55h5.0V5.46H0.75z"/>
        <circle r="2.06" cy="23.47" id="circle3423" cx="6.5" fill="#212121"/>
        <g style="text-align:start;line-height:125%;writing-mode:lr;text-anchor:start;font-family:OCRA" stroke="none" id="label" font-size="8px" fill="#e6e6e6">
            <text x="5.3135319" id="tspan2960" y="23.34194"></text>
        </g>
        <rect x="3.5" width="3" height="4.34" id="connector0pin" fill="#8C8C8C" y="28.66"/>
        <rect x="3.5" width="3" height="3" id="connector0terminal" fill="#8C8C8C" y="30.0"/>
        <polygon points="3.5,28.66 3.5,30.66 6.5,30.66 8.5,29.74 8.5,28.66  " id="polygon3428" fill="#8C8C8C"/>
        <rect x="3.5" width="3" height="4.34" id="connector7pin" fill="#8C8C8C"/>
        <rect x="3.5" width="3" height="3" id="connector7terminal" fill="#8C8C8C"/>
        <polygon points="8.5,4.34 8.5,3.26 6.5,2.34 3.5,2.34 3.5,4.34" id="polygon3432" fill="#8C8C8C"/>
        <rect x="33.5" width="3" height="4.34" id="connector3pin" fill="#8C8C8C" y="28.66"/>
        <rect x="33.5" width="3" height="3" id="connector3terminal" fill="#8C8C8C" y="30.0"/>
        <polygon points="31.5,28.66 31.5,29.74 33.5,30.66 36.5,30.66 36.5,28.66" id="polygon3436" fill="#8C8C8C"/>
        <rect x="33.5" width="3" height="4.34" id="connector4pin" fill="#8C8C8C" y="0"/>
        <rect x="33.5" width="3" height="3" id="connector4terminal" fill="#8C8C8C" y="0"/>
        <polygon points="36.5,4.34 36.5,2.34 33.5,2.34 31.5,3.26 31.5,4.34  " id="polygon3440" fill="#8C8C8C"/>
        <rect x="13.5" width="3" height="4.34" id="connector1pin" fill="#8C8C8C" y="28.66"/>
        <rect x="13.5" width="3" height="3" id="connector1terminal" fill="#8C8C8C" y="30.0"/>
        <polygon points="11.5,28.66 11.5,29.74 13.5,30.66 16.5,30.66 18.5,29.74 18.5,28.66" id="polygon3444" fill="#8C8C8C"/>
        <rect x="13.5" width="3" height="4.34" id="connector6pin" fill="#8C8C8C" y="0"/>
        <rect x="13.5" width="3" height="3" id="connector6terminal" fill="#8C8C8C"/>
        <polygon points="18.5,4.34 18.5,3.26 16.5,2.34 13.5,2.34 11.5,3.26 11.5,4.34" id="polygon3448" fill="#8C8C8C"/>
        <rect x="23.5" width="3" height="4.34" id="connector2pin" fill="#8C8C8C" y="28.66"/>
        <rect x="23.5" width="3" height="3" id="connector2terminal" fill="#8C8C8C" y="30.0"/>
        <polygon points="21.5,28.66 21.5,29.74 23.5,30.66 26.5,30.66 28.5,29.74 28.5,28.66" id="polygon3452" fill="#8C8C8C"/>
        <rect x="23.5" width="3" height="4.34" id="connector5pin" fill="#8C8C8C" y="0"/>
        <rect x="23.5" width="3" height="3" id="connector5terminal" fill="#8C8C8C"/>
        <polygon points="28.5,4.34 28.5,3.26 26.5,2.34 23.5,2.34 21.5,3.26 21.5,4.34" id="polygon3456" fill="#8C8C8C"/>
        <g style="text-align:start;line-height:125%;writing-mode:lr;text-anchor:start;font-family:OCRA" stroke="none" id="label-1" font-size="5px" fill="#e6e6e6">
            <text x="5.2038975" id="tspan2962" y="14.680809">Attiny85</text>
        </g>
    </g>
</svg>
